# xmcd
#
# Track frame offsets: 
#        150
#        16937
#        38414
#        52129
#        68268
#        79806
#        91398
#        110078
#        120576
#        135501
#        146044
#
# Disc length: 2151 seconds
#
# Revision: 0
# Processed by: cddbd v1.5.1PL2 Copyright (c) Steve Scherf et al.
# Submitted via: ExactAudioCopy v0.95b3
#
DISCID=8c08650b
DTITLE=Jade - Jade
DYEAR=2005
DGENRE=Country
TTITLE0=Something To Talk About
TTITLE1=Drift Away
TTITLE2=Burning Love
TTITLE3=Guitar Garage
TTITLE4=Amazing Grace
TTITLE5=Stuck On You
TTITLE6=Proud Mary
TTITLE7=It's In His Kiss
TTITLE8=Why Haven't I Heard From You
TTITLE9=Sweet Nothing's
TTITLE10=GOD Bless The USA
EXTD=
EXTT0=
EXTT1=
EXTT2=
EXTT3=
EXTT4=
EXTT5=
EXTT6=
EXTT7=
EXTT8=
EXTT9=
EXTT10=
PLAYORDER=
